<svg viewBox="0 0 72 80" fill="none" xmlns="http://www.w3.org/2000/svg">
<g>
<path fill-rule="evenodd" clip-rule="evenodd" d="M2.34316 2.34316C-2.38419e-07 4.68628 0 8.45752 0 16V56C0 67.3136 0 72.9704 3.51472 76.4852C6.07992 79.0504 9.7862 79.7436 16 79.9308V68C16 65.7908 17.7909 64 20 64C22.2091 64 24 65.7908 24 68V80H48V68C48 65.7908 49.7908 64 52 64C54.2092 64 56 65.7908 56 68V79.9308C62.2136 79.7436 65.92 79.0504 68.4852 76.4852C72 72.9704 72 67.3136 72 56V16C72 8.45752 72 4.68628 69.6568 2.34316C67.3136 -2.38419e-07 63.5424 0 56 0H16C8.45752 0 4.68628 -2.38419e-07 2.34316 2.34316ZM20 24C17.7909 24 16 25.7909 16 28C16 30.2091 17.7909 32 20 32H52C54.2092 32 56 30.2091 56 28C56 25.7909 54.2092 24 52 24H20ZM20 48H52C54.2092 48 56 46.2092 56 44C56 41.7908 54.2092 40 52 40H20C17.7909 40 16 41.7908 16 44C16 46.2092 17.7909 48 20 48Z" fill="#83A498"/>
</g>
</svg>
