<svg viewBox="0 0 72 80" fill="none" xmlns="http://www.w3.org/2000/svg">
<g>
<path d="M4.08533 55.0312V69.2915C4.08533 70.1245 4.76053 70.7995 5.59333 70.7995H32.9143C32.6778 70.2952 32.5449 69.7331 32.5449 69.1403V55.0312H4.08533Z" fill="#83A498"/>
<path d="M2.262 52.6932H4.08532H32.5448V51.3937V49.5526C32.5448 49.5354 32.5453 49.5182 32.5454 49.501C32.5535 48.3535 32.832 47.2691 33.3203 46.3088C33.5311 45.8944 33.7808 45.5029 34.0648 45.1396C34.4024 44.7077 34.7884 44.3152 35.2142 43.9704C36.4478 42.9715 38.0177 42.3721 39.7252 42.3721H41.4258V39.1063C41.4258 36.6297 39.4182 34.6221 36.9416 34.6221H32.8844C32.0924 34.6221 31.4044 35.1671 31.2234 35.9382L29.3374 43.9705L29.0628 45.1397L28.8684 45.9674C28.8413 46.0833 28.8092 46.1973 28.7726 46.3088H27.5221C27.5083 45.9176 27.4685 45.5271 27.4032 45.1396C27.3921 45.0724 27.3802 45.0055 27.3673 44.9386L27.1166 43.9704L25.6409 38.2745L26.8187 35.6753C27.0422 35.1818 26.6814 34.6221 26.1396 34.6221H23.6118C23.07 34.6221 22.7091 35.1818 22.9328 35.6753L24.1105 38.2745L22.5789 43.9704L22.3462 44.8358C22.326 44.9368 22.3081 45.0381 22.2913 45.1396C22.2274 45.5272 22.1888 45.9175 22.1762 46.3088H20.9789C20.9424 46.1972 20.9103 46.0833 20.883 45.9674L20.6886 45.1397L20.4141 43.9704L18.5281 35.9384C18.3471 35.1673 17.6592 34.6223 16.8671 34.6223H12.81C10.3334 34.6223 8.32575 36.63 8.32575 39.1066V43.9708V45.14V46.3091H2.262C1.01277 46.3091 0 47.3218 0 48.5711V50.4316C0 51.6806 1.01277 52.6932 2.262 52.6932Z" fill="#83A498"/>
<path d="M24.8759 32.1986C30.4342 32.1986 34.9401 27.6927 34.9401 22.1345V11.4373C34.9401 10.0506 33.6914 8.99829 32.3247 9.23308C29.3633 9.74181 22.6103 11.0894 18.4085 11.9372C16.316 12.3594 14.8116 14.1982 14.8116 16.3328V22.1346C14.8117 27.6928 19.3176 32.1986 24.8759 32.1986Z" fill="#83A498"/>
<path d="M39.9186 43.8887C39.1386 43.8887 38.4015 44.071 37.7462 44.3941C37.1639 44.6813 36.6472 45.0804 36.2231 45.5632C35.4728 46.4171 35.0139 47.5325 35.0013 48.7554C35.0011 48.7727 35 48.7897 35 48.8071V50.6482V51.9477V53.1167V54.2859V68.3949C35 69.3113 35.7429 70.0541 36.6592 70.0541H61.8493H69.6453C70.5617 70.0541 71.3046 69.3113 71.3046 68.3949V48.8071C71.3046 46.4271 69.614 44.442 67.368 43.9869C67.0508 43.9227 66.7224 43.8887 66.3862 43.8887H41.6193H39.9186Z" fill="#83A498"/>
<path d="M52.959 41.9761C59.0554 41.9761 63.9976 37.034 63.9976 30.9376V24.5741C63.9976 22.2328 62.3474 20.216 60.0525 19.753C55.4439 18.8231 48.0372 17.3451 44.789 16.787C44.6473 16.7627 44.5068 16.751 44.3685 16.751C43.0434 16.751 41.9204 17.8274 41.9204 19.2046V30.9376C41.9205 37.034 46.8626 41.9761 52.959 41.9761Z" fill="#83A498"/>
</g>
</svg>
