<svg viewBox="0 0 72 72" fill="none" xmlns="http://www.w3.org/2000/svg">
<path d="M72.0001 29.9888H60.0114V36.0001H72.0001V29.9888Z" fill="#83A498"/>
<path d="M54.0169 38.9971V27.0084C54.0169 25.3659 55.3546 24.0112 57.014 24.0112H69.3752L65.7007 16.6622C65.1928 15.6462 64.1429 15.0027 63.0083 15.0027H41.9774C40.3349 15.0027 38.9803 16.3404 38.9803 17.9998V36.0167H29.9887V30.0054H32.9858C34.6283 30.0054 35.983 28.6507 35.983 27.0082C35.983 25.3657 34.6452 24.0111 32.9858 24.0111H29.9887V17.9999H32.9858C34.6283 17.9999 35.983 16.6453 35.983 15.0028C35.983 13.3603 34.6452 12.0057 32.9858 12.0057H29.9887V9.00837C29.9887 7.36587 28.6341 6.01123 26.9916 6.01123C25.3491 6.01123 23.9944 7.349 23.9944 9.00837V12.0055H12.0056V9.00837C12.0056 7.34885 10.6339 6.01123 8.99142 6.01123C7.34892 6.01123 5.99428 7.349 5.99428 9.00837V12.0055H2.99714C1.35464 12.0055 0 13.3603 0 15.0028C0 16.6453 1.35464 17.9999 2.99714 17.9999H5.99428V24.0112H2.99714C1.35464 24.0112 0 25.349 0 27.0084C0 28.6509 1.35464 29.9886 2.99714 29.9886H5.99428V35.9999H2.99714C1.35464 35.9999 0 37.3546 0 38.9971V53.9999C0 55.6594 1.35464 56.9971 2.99714 56.9971H5.99428C5.99428 61.9585 10.0245 65.9886 15.0027 65.9886C19.9811 65.9886 24.0112 61.9585 24.0112 56.9971H48.0225C48.0225 61.9585 52.0526 65.9886 57.014 65.9886C61.9754 65.9886 66.0056 61.9585 66.0056 56.9971H69.0027C70.6452 56.9971 71.9999 55.6593 71.9999 53.9999V42.0112H56.9971C55.3546 42.0112 54 40.6566 54.0169 38.9971ZM14.9858 59.9942C13.3433 59.9942 11.9887 58.6564 11.9887 56.9971C11.9887 56.3367 12.2427 55.744 12.6152 55.2529C13.7666 53.7119 16.2219 53.7119 17.3734 55.2529C17.7459 55.744 17.9999 56.3366 17.9999 56.9971C18 58.6566 16.6454 60.0112 14.9858 59.9942ZM23.9774 35.9999H11.9887V29.9886H24.0113L23.9774 35.9999ZM23.9774 24.0112H11.9887V17.9999H24.0113L23.9774 24.0112ZM59.3678 55.2699C59.7403 55.761 59.9943 56.3536 59.9943 57.0141C59.9943 58.6566 58.6565 60.0112 56.9971 60.0112C55.3546 60.0112 54 58.6735 54 57.0141C54 56.3537 54.254 55.761 54.6265 55.2699C55.7779 53.729 58.2332 53.729 59.3678 55.2699Z" fill="#83A498"/>
</svg>
