<svg viewBox="0 0 30 30" fill="none" xmlns="http://www.w3.org/2000/svg">
<g clip-path="url(#clip0_5_276)">
<path d="M15 0C23.2843 0 30 6.71574 30 15C30 23.2843 23.2843 30 15 30C6.71574 30 0 23.2843 0 15C0 6.71574 6.71574 0 15 0ZM15 3.12497C8.86382 3.12497 3.81466 7.77916 3.19003 13.75H8.87503C9.45411 10.8972 11.9763 8.74997 15 8.74997C18.0237 8.74997 20.5459 10.8972 21.125 13.75H26.81C26.1853 7.77916 21.1362 3.12497 15 3.12497ZM3.19003 16.25C3.81466 22.2208 8.86382 26.875 15 26.875C21.1362 26.875 26.1853 22.2208 26.81 16.25L21.125 16.2501C20.5459 19.1028 18.0237 21.25 15 21.25C11.9763 21.25 9.45411 19.1028 8.87503 16.2501L3.19003 16.25ZM15 11.25C12.9289 11.25 11.25 12.929 11.25 15C11.25 17.0711 12.9289 18.75 15 18.75C17.071 18.75 18.75 17.0711 18.75 15C18.75 12.929 17.071 11.25 15 11.25ZM15 13.125C16.0356 13.125 16.875 13.9644 16.875 15C16.875 16.0356 16.0356 16.875 15 16.875C13.9644 16.875 13.125 16.0356 13.125 15C13.125 13.9644 13.9644 13.125 15 13.125Z" fill="#F4F4F5"/>
</g>
</svg>
